# xmcd
#
# Track frame offsets: 
#        150
#        19963
#        44109
#        62099
#        82727
#        98269
#        124932
#        154084
#        168883
#        200136
#        220314
#        241718
#        260218
#
# Disc length: 3928 seconds
#
# Revision: 0
# Processed by: cddbd v1.5.2PL0 Copyright (c) Steve Scherf et al.
# Submitted via: ExactAudioCopy v0.95b4
#
DISCID=b10f560d
DTITLE=Gillian Welch and David Rawlings - Strawberry Music Festival Sept
DTITLE=4, 1999
DYEAR=1999
DGENRE=Country
TTITLE0=Orphan Girl
TTITLE1=Annabelle
TTITLE2=Rock of Ages
TTITLE3=Apalachicola Bound
TTITLE4=Wichita
TTITLE5=Barroom Girls
TTITLE6=Revelator
TTITLE7=By The Mark
TTITLE8=My Morphine
TTITLE9=Devil Had A Hold On Me
TTITLE10=Pass You By
TTITLE11=Caleb Meyer
TTITLE12=Tennessee Stud
EXTD=
EXTT0=
EXTT1=
EXTT2=
EXTT3=
EXTT4=
EXTT5=
EXTT6=
EXTT7=
EXTT8=
EXTT9=
EXTT10=
EXTT11=
EXTT12=
PLAYORDER=
